
<svg width="380" height="260" xmlns="http://www.w3.org/2000/svg">
  <style>
    .title { font-family: Arial, sans-serif; font-size: 12px; fill: #1f2937; font-weight: bold; }
    .subtitle { font-size: 8px; fill: #6b7280; }
    .button { fill: #8b5cf6; }
    .button-text { font-size: 8px; fill: white; font-family: Arial, sans-serif; font-weight: bold; }
    .tag { fill: #f3f4f6; font-size: 7px; font-family: Arial, sans-serif; }
    .time-icon { fill: #6b7280; font-size: 7px; }
  </style>

  <!-- Sidebar -->
  <rect x="0" y="0" width="100" height="260" rx="10" fill="#f9fafb"/>
  <circle cx="25" cy="25" r="10" fill="#8b5cf6"/>
  <text x="40" y="28" font-family="Arial, sans-serif" font-size="10" fill="#4f46e5" font-weight="bold">Rehab</text>
  <text x="40" y="40" font-family="Arial, sans-serif" font-size="10" fill="#4f46e5" font-weight="bold">Share</text>

  <rect x="15" y="50" rx="10" ry="10" width="70" height="18" class="button"/>
  <text x="22" y="63" class="button-text">Upload Data</text>

  <text x="20" y="85" class="subtitle">Progress</text>
  <text x="20" y="100" class="subtitle">Care Plans</text>

  <!-- Main panel -->
  <rect x="105" y="0" width="260" height="260" rx="10" fill="#ffffff"/>
  <text x="115" y="25" class="title">Care Schedule</text>
  <text x="115" y="35" class="subtitle">Overview for October 2025</text>

  <!-- Schedule bars -->
  <rect x="115" y="50" rx="8" ry="8" width="120" height="14" fill="#8b5cf6"/>
  <circle cx="120" cy="57" r="5" fill="#ec4899"/>
  <text x="130" y="60" font-size="7" fill="white" font-family="Arial">Alice</text>

  <rect x="115" y="70" rx="8" ry="8" width="110" height="14" fill="#3b82f6"/>
  <circle cx="120" cy="77" r="5" fill="#60a5fa"/>
  <text x="130" y="80" font-size="7" fill="white" font-family="Arial">Bob</text>

  <rect x="115" y="90" rx="8" ry="8" width="100" height="14" fill="#10b981"/>
  <circle cx="120" cy="97" r="5" fill="#6ee7b7"/>
  <text x="130" y="100" font-size="7" fill="white" font-family="Arial">Lina</text>

  <rect x="115" y="110" rx="8" ry="8" width="110" height="14" fill="#f472b6"/>
  <circle cx="120" cy="117" r="5" fill="#fb7185"/>
  <text x="130" y="120" font-size="7" fill="white" font-family="Arial">Tom</text>

  <!-- Detail card -->
  <rect x="110" y="140" rx="10" ry="10" width="180" height="60" fill="#f9fafb"/>
  <text x="120" y="155" font-size="9" font-weight="bold" fill="#111827" font-family="Arial">Log #45 - Rehab Activity</text>
  <rect x="120" y="160" width="30" height="14" rx="7" class="tag"/>
  <text x="127" y="171" fill="#374151" font-size="7" font-family="Arial">SW</text>
  <rect x="155" y="160" width="40" height="14" rx="7" class="tag"/>
  <text x="160" y="171" fill="#374151" font-size="7" font-family="Arial">Physio</text>
  <text x="120" y="185" font-size="7" fill="#6b7280" font-family="Arial">📅 16 Oct  • ⏱ 45 mins</text>

  <rect x="190" y="162" width="50" height="20" rx="10" class="button"/>
  <text x="203" y="176" class="button-text">Detail</text>
</svg>
